#define icon_width 32
#define icon_height 32
static unsigned char icon_bits[] = {
   0x00, 0x00, 0x00, 0x00, 0x00, 0x00, 0x00, 0x00, 0x00, 0x00, 0x00, 0x00,
   0x00, 0x00, 0x00, 0x00, 0x00, 0x00, 0x00, 0x00, 0x00, 0x00, 0x00, 0x00,
   0x00, 0x74, 0x07, 0x00, 0x00, 0xfc, 0x0f, 0x00, 0x00, 0xf0, 0x01, 0x00,
   0x00, 0xf0, 0x01, 0x00, 0x00, 0xf0, 0x01, 0x00, 0x00, 0xf0, 0x01, 0x00,
   0x00, 0xf8, 0x01, 0x00, 0x00, 0xf8, 0x00, 0x00, 0x00, 0xf8, 0x00, 0x00,
   0x00, 0xf8, 0x00, 0x00, 0x00, 0xf8, 0x00, 0x00, 0x00, 0xf8, 0x00, 0x00,
   0x00, 0x7c, 0x00, 0x00, 0x00, 0x7c, 0x00, 0x00, 0x00, 0x7c, 0x00, 0x00,
   0x00, 0x7c, 0x80, 0x00, 0x00, 0x7c, 0xc0, 0x00, 0x00, 0x3e, 0xc0, 0x00,
   0x80, 0xfe, 0xff, 0x00, 0x80, 0xff, 0xff, 0x00, 0x00, 0x00, 0x00, 0x00,
   0x00, 0x00, 0x00, 0x00, 0x00, 0x00, 0x00, 0x00, 0x00, 0x00, 0x00, 0x00,
   0x00, 0x00, 0x00, 0x00, 0x00, 0x00, 0x00, 0x00 };
